<svg xmlns="http://www.w3.org/2000/svg" width="128" height="128" viewBox="0 0 128 128">
  <title>CAT </title>
  <g>
    <g>
      <g>
        <path d="M103.317,52.25c12.154-17.417,3.435-45.75,3.435-45.75s-20.627,8-37,30.815C73.907,39.179,98.163,50.064,103.317,52.25Z" fill="#663325"/>
        <path d="M100.764,44.59C96.2,42.575,88.987,39.359,79.19,34.971a90.874,90.874,0,0,1,23.419-19.664C103.943,22.84,105.021,35,100.764,44.59Z" fill="#51221c"/>
        <path d="M24.683,52.25C12.529,34.833,21.248,6.5,21.248,6.5s20.627,8,37,30.815C54.093,39.179,29.837,50.064,24.683,52.25Z" fill="#663325"/>
        <path d="M27.236,44.59C22.98,35,24.057,22.842,25.391,15.306A90.882,90.882,0,0,1,48.81,34.971C39.013,39.359,31.8,42.575,27.236,44.59Z" fill="#51221c"/>
      </g>
      <path d="M117.077,64c0,29.314-23.763,57.5-53.077,57.5S10.923,93.314,10.923,64,34.686,15.346,64,15.346,117.077,34.686,117.077,64Z" fill="#f4a86c"/>
      <path d="M70,87.182c0,3.313-2.686,8.166-6,8.166s-6-4.853-6-8.166,2.686-3.834,6-3.834S70,83.868,70,87.182Z" fill="#663325"/>
    </g>
    <g>
      <path d="M11.228,71.544a1.633,1.633,0,0,0,.184-.01,1.749,1.749,0,0,0,1.558-1.923q-.12-1.147-.193-2.3a1.75,1.75,0,1,0-3.493.216q.075,1.23.205,2.452A1.75,1.75,0,0,0,11.228,71.544Z" fill="#072130"/>
      <path d="M110.6,71.007a1.742,1.742,0,0,0,1.928-1.552,51.119,51.119,0,0,0,.3-5.455,46.763,46.763,0,0,0-.238-4.729,1.75,1.75,0,0,0-3.482.355,43.262,43.262,0,0,1,.22,4.374,47.775,47.775,0,0,1-.275,5.08A1.75,1.75,0,0,0,110.6,71.007Z" fill="#072130"/>
      <path d="M81.924,55.021a7.83,7.83,0,0,1,10.081,0,1.75,1.75,0,0,0,2.639-2.3,11.224,11.224,0,0,0-15.358,0,1.75,1.75,0,1,0,2.638,2.3Z" fill="#072130"/>
      <path d="M41.037,49.684a10.21,10.21,0,0,0-7.681,3.039,1.75,1.75,0,0,0,2.639,2.3,6.919,6.919,0,0,1,5.042-1.839,6.918,6.918,0,0,1,5.039,1.837,1.75,1.75,0,0,0,2.638-2.3A10.2,10.2,0,0,0,41.037,49.684Z" fill="#072130"/>
      <path d="M121.907,82.989a38.04,38.04,0,0,0-5.948-.85A59.549,59.549,0,0,0,118.827,64a48.352,48.352,0,0,0-13.321-34A73.235,73.235,0,0,0,104.33,15.01a1.742,1.742,0,0,0-2.59-1.22,86.267,86.267,0,0,0-9.465,6.369q-1.25-.648-2.546-1.235a84.637,84.637,0,0,1,15.861-10,81.879,81.879,0,0,1,2.43,18.29,1.754,1.754,0,0,0,1.75,1.73h.02a1.752,1.752,0,0,0,1.73-1.77,82.539,82.539,0,0,0-3.1-21.18,1.713,1.713,0,0,0-.91-1.06,1.686,1.686,0,0,0-1.39-.06c-.38.146-9.26,3.655-20.075,12.525A63.362,63.362,0,0,0,64,13.6a62.96,62.96,0,0,0-21.962,3.866C31.194,8.542,22.261,5.016,21.88,4.87a1.686,1.686,0,0,0-1.39.06,1.713,1.713,0,0,0-.91,1.06c-.2.64-4.731,15.656-2.486,30.788A47.955,47.955,0,0,0,9.283,60.513a1.75,1.75,0,1,0,3.493.223C14.417,35.042,35.481,17.1,64,17.1c29.741,0,51.327,19.726,51.327,46.9a56.365,56.365,0,0,1-2.994,18.017,45.018,45.018,0,0,0-18.208,3.7,1.75,1.75,0,0,0,.721,3.345,1.731,1.731,0,0,0,.718-.155,40.32,40.32,0,0,1,15.463-3.377,59,59,0,0,1-4.524,8.818A36.744,36.744,0,0,0,94.578,93.6a1.75,1.75,0,1,0,.533,3.459,31.674,31.674,0,0,1,9.27.445C94.812,110.839,79.985,119.75,64,119.75c-15.67,0-30.612-8.756-40.308-22.256a31.553,31.553,0,0,1,9.2-.431,1.75,1.75,0,1,0,.533-3.459,36.683,36.683,0,0,0-11.848.729,59.259,59.259,0,0,1-4.523-8.8,40.3,40.3,0,0,1,15.385,3.376,1.731,1.731,0,0,0,.718.155,1.75,1.75,0,0,0,.721-3.345,44.99,44.99,0,0,0-18.148-3.7,58.877,58.877,0,0,1-1.8-6.478,1.75,1.75,0,0,0-3.421.74c.432,1.992.969,3.943,1.584,5.857a38.015,38.015,0,0,0-5.993.853,1.75,1.75,0,1,0,.814,3.4,38.36,38.36,0,0,1,6.393-.815,62.682,62.682,0,0,0,4.743,9.678A24.046,24.046,0,0,0,12.927,97.5,1.75,1.75,0,1,0,14.74,100.5a21.916,21.916,0,0,1,5.281-2.17C30.331,113.392,46.745,123.25,64,123.25c17.58,0,33.851-10.039,44.027-24.908a21.785,21.785,0,0,1,5.233,2.155,1.75,1.75,0,1,0,1.813-2.993A23.963,23.963,0,0,0,110,95.268a62.459,62.459,0,0,0,4.747-9.687,38.419,38.419,0,0,1,6.348.812,1.75,1.75,0,1,0,.814-3.4ZM22.41,8.92A84.574,84.574,0,0,1,38.352,18.981q-1.293.588-2.546,1.24A86.267,86.267,0,0,0,26.26,13.79a1.742,1.742,0,0,0-2.59,1.22A73.179,73.179,0,0,0,22.5,30.069c-.816.843-1.591,1.713-2.334,2.6A78.772,78.772,0,0,1,22.41,8.92ZM25.982,26.8a70.128,70.128,0,0,1,.728-8.661q2.919,1.818,5.773,3.94a51.087,51.087,0,0,0-5.995,4.279C26.315,26.5,26.153,26.655,25.982,26.8ZM101.29,18.14a71.077,71.077,0,0,1,.721,8.556,50.58,50.58,0,0,0-6.416-4.67C97.467,20.634,99.37,19.333,101.29,18.14Z" fill="#072130"/>
      <path d="M47.108,93.353a1.75,1.75,0,1,0-1.876,2.955c4,2.54,7.576,3.818,10.66,3.818a10.05,10.05,0,0,0,2.274-.252,8.566,8.566,0,0,0,4.689-2.913,4.81,4.81,0,0,0,2.292,0,8.567,8.567,0,0,0,4.7,2.915,10.01,10.01,0,0,0,2.263.251c3.083,0,6.657-1.279,10.658-3.818a1.75,1.75,0,1,0-1.876-2.955c-4.142,2.629-7.69,3.708-10.258,3.112A5.011,5.011,0,0,1,68.3,95.189a12.082,12.082,0,0,0,3.452-8.007C71.75,81.6,66.12,81.6,64,81.6s-7.75,0-7.75,5.583A12.083,12.083,0,0,0,59.7,95.19a5,5,0,0,1-2.328,1.274C54.8,97.061,51.255,95.984,47.108,93.353ZM64,85.1c4.25,0,4.25,1.011,4.25,2.083,0,2.651-2.2,6.417-4.25,6.417s-4.25-3.766-4.25-6.417C59.75,86.11,59.75,85.1,64,85.1Z" fill="#072130"/>
    </g>
  </g>
</svg>
