<?xml version="1.0" encoding="utf-8"?>
<!-- Generator: Adobe Illustrator 24.0.0, SVG Export Plug-In . SVG Version: 6.00 Build 0)  -->
<svg version="1.1" xmlns="http://www.w3.org/2000/svg" xmlns:xlink="http://www.w3.org/1999/xlink" x="0px" y="0px"
	 viewBox="0 0 64 64" enable-background="new 0 0 64 64" xml:space="preserve">
<g id="Captions">
</g>
<g id="Icons">
	<g>
		<g>
			<g>
				<path fill="#C80A50" d="M53,36h-2c-2.761,0-5,2.239-5,5v10c0,0.552,0.448,1,1,1h10c0.552,0,1-0.448,1-1V41
					C58,38.239,55.761,36,53,36z"/>
			</g>
			<g>
				<path fill="#C80A50" d="M60,60H44v-6c0-2.209,1.791-4,4-4h8c2.209,0,4,1.791,4,4V60z"/>
			</g>
			<g>
				<path fill="#00A0C8" d="M48,50c0,2.209,1.791,4,4,4s4-1.791,4-4H48z"/>
			</g>
			<g>
				<path fill="#D2AA82" d="M52,52L52,52c-1.105,0-2-0.895-2-2v-3h4v3C54,51.105,53.105,52,52,52z"/>
			</g>
			<g>
				<path fill="#F0C8A0" d="M53,48h-2c-1.657,0-3-1.343-3-3v-3c0-1.105,0.895-2,2-2h1v0c0,1.105,0.895,2,2,2h3v3
					C56,46.657,54.657,48,53,48z"/>
			</g>
		</g>
		<g>
			<g>
				<path fill="#FAB400" d="M20,60H4v-9c0-1.657,1.343-3,3-3h10c1.657,0,3,1.343,3,3V60z"/>
			</g>
			<g>
				<path fill="#00A0C8" d="M8,48c0,2.209,1.791,4,4,4s4-1.791,4-4H8z"/>
			</g>
			<g>
				<path fill="#D2AA82" d="M12,50L12,50c-1.105,0-2-0.895-2-2v-3h4v3C14,49.105,13.105,50,12,50z"/>
			</g>
			<g>
				<path fill="#F0C8A0" d="M13,46h-2c-1.657,0-3-1.343-3-3v-3c0-1.105,0.895-2,2-2h4c1.105,0,2,0.895,2,2v3
					C16,44.657,14.657,46,13,46z"/>
			</g>
			<g>
				<path fill="#0A5078" d="M14,38h-4c-1.105,0-2,0.895-2,2v0v-2c0-1.105,0.895-2,2-2h4c1.105,0,2,0.895,2,2v2v0
					C16,38.895,15.105,38,14,38z"/>
			</g>
		</g>
		<g>
			<path fill="#C80A50" d="M18,6v33.586c0,0.891,1.077,1.337,1.707,0.707L26,34h18c1.105,0,2-0.895,2-2V6c0-1.105-0.895-2-2-2H20
				C18.895,4,18,4.895,18,6z"/>
		</g>
		<g>
			<path fill="#A00028" d="M31.087,9.051c-3.517,0.389-6.443,3.17-6.987,6.667c-0.448,2.879,0.643,5.52,2.574,7.243
				C27.519,23.715,28,24.794,28,25.926V29c0,1.105,0.895,2,2,2h4c1.105,0,2-0.895,2-2v-3.074c0-1.126,0.47-2.206,1.312-2.953
				C38.96,21.509,40,19.378,40,17C40,12.281,35.914,8.516,31.087,9.051z"/>
		</g>
		<g>
			<g>
				<path fill="#FAB400" d="M40,16c0-4.719-4.086-8.484-8.913-7.949c-3.517,0.389-6.443,3.17-6.987,6.667
					c-0.448,2.879,0.643,5.52,2.574,7.243C27.519,22.715,28,23.794,28,24.926V26h8v-1.074c0-1.126,0.47-2.206,1.312-2.954
					C38.96,20.509,40,18.378,40,16z"/>
			</g>
			<g>
				<path fill="#00325A" d="M34,30h-4c-1.105,0-2-0.895-2-2v-2h8v2C36,29.105,35.105,30,34,30z"/>
			</g>
		</g>
		<g>
			<path fill="#BE7800" d="M32,21c-0.552,0-1-0.447-1-1v-1.42c0-1.215,0.692-2.287,1.763-2.73c0.875-0.361,1.371-1.274,1.205-2.221
				c-0.138-0.786-0.81-1.458-1.596-1.596c-0.607-0.109-1.195,0.047-1.656,0.435C30.261,12.849,30,13.407,30,14c0,0.553-0.448,1-1,1
				s-1-0.447-1-1c0-1.185,0.521-2.302,1.429-3.064s2.107-1.079,3.288-0.873c1.613,0.283,2.937,1.607,3.22,3.221
				c0.33,1.877-0.662,3.692-2.41,4.414C33.212,17.828,33,18.183,33,18.58V20C33,20.553,32.552,21,32,21z"/>
		</g>
		<g>
			<circle fill="#BE7800" cx="32" cy="23" r="1"/>
		</g>
		<g>
			<path fill="#00A0C8" d="M46,17h-2c-0.552,0-1-0.447-1-1s0.448-1,1-1h2c0.552,0,1,0.447,1,1S46.552,17,46,17z"/>
		</g>
		<g>
			<path fill="#00A0C8" d="M43,12c-0.256,0-0.512-0.098-0.707-0.293c-0.391-0.391-0.391-1.023,0-1.414l1-1
				c0.391-0.391,1.023-0.391,1.414,0s0.391,1.023,0,1.414l-1,1C43.512,11.902,43.256,12,43,12z"/>
		</g>
		<g>
			<path fill="#00A0C8" d="M44,23c-0.256,0-0.512-0.098-0.707-0.293l-1-1c-0.391-0.391-0.391-1.023,0-1.414s1.023-0.391,1.414,0l1,1
				c0.391,0.391,0.391,1.023,0,1.414C44.512,22.902,44.256,23,44,23z"/>
		</g>
		<g>
			<path fill="#00A0C8" d="M20,17h-2c-0.552,0-1-0.447-1-1s0.448-1,1-1h2c0.552,0,1,0.447,1,1S20.552,17,20,17z"/>
		</g>
		<g>
			<path fill="#00A0C8" d="M21,12c-0.256,0-0.512-0.098-0.707-0.293l-1-1c-0.391-0.391-0.391-1.023,0-1.414s1.023-0.391,1.414,0l1,1
				c0.391,0.391,0.391,1.023,0,1.414C21.512,11.902,21.256,12,21,12z"/>
		</g>
		<g>
			<path fill="#00A0C8" d="M20,23c-0.256,0-0.512-0.098-0.707-0.293c-0.391-0.391-0.391-1.023,0-1.414l1-1
				c0.391-0.391,1.023-0.391,1.414,0s0.391,1.023,0,1.414l-1,1C20.512,22.902,20.256,23,20,23z"/>
		</g>
	</g>
</g>
</svg>
