<svg xmlns="http://www.w3.org/2000/svg" viewBox="0 0 48 48"><title>14-joker</title><g id="_14-joker" data-name="14-joker"><path d="M43,47H36V36.09A11.987,11.987,0,0,1,43,47Z" style="fill:#ff73a5"/><path d="M12,36.09V47H5a11.929,11.929,0,0,1,2.87-7.79A12.109,12.109,0,0,1,12,36.09Z" style="fill:#ff73a5"/><path d="M23,38h2a1,1,0,0,0,1-1l6,2.57V47H16V39.57L22,37A1,1,0,0,0,23,38Z" style="fill:#ff73a5"/><path d="M15,40l1-.43V47H12V36.09a11.74,11.74,0,0,1,3-.92Z" style="fill:#bdf052"/><path d="M36,36.09V47H32V39.57L33,40V35.17A11.74,11.74,0,0,1,36,36.09Z" style="fill:#bdf052"/><path d="M42.615,47H43a11.987,11.987,0,0,0-7-10.91v3A12,12,0,0,1,42.615,47Z" style="fill:#ffa1c8"/><path d="M12,39.09v-3a12.109,12.109,0,0,0-4.13,3.12A11.929,11.929,0,0,0,5,47h.385A11.9,11.9,0,0,1,7.87,42.21,12.109,12.109,0,0,1,12,39.09Z" style="fill:#ffa1c8"/><path d="M15,38.17v-3a11.74,11.74,0,0,0-3,.92v3A11.74,11.74,0,0,1,15,38.17Z" style="fill:#d7fa78"/><path d="M36,36.09a11.74,11.74,0,0,0-3-.92v3a11.74,11.74,0,0,1,3,.92Z" style="fill:#d7fa78"/><polygon points="16 42.57 16 39.57 15 40 15 43 16 42.57" style="fill:#86c42b"/><polygon points="33 43 33 40 32 39.57 32 42.57 33 43" style="fill:#86c42b"/><rect x="22" y="34" width="4" height="4" rx="1" ry="1" style="fill:#7a3eb5"/><path d="M25,37H23a1,1,0,0,1-1-1v1a1,1,0,0,0,1,1h2a1,1,0,0,0,1-1V36A1,1,0,0,1,25,37Z" style="fill:#613394"/><polygon points="19 33.71 22 35 22 37 16 39.57 15 40 15 35.17 15 32 19 33.71" style="fill:#b674f2"/><polygon points="29 33.71 33 32 33 35.17 33 40 32 39.57 26 37 26 35 29 33.71" style="fill:#b674f2"/><polygon points="15 38 15 40 16 39.57 22 37 22 35 16 37.57 15 38" style="fill:#a260e5"/><polygon points="26 35 26 37 32 39.57 33 40 33 38 32 37.57 26 35" style="fill:#a260e5"/><path d="M31,8l-.02.04a12.961,12.961,0,0,0-13.96,0L17,8l7-7Z" style="fill:#b674f2"/><circle cx="24" cy="19" r="13" style="fill:#f2f5f9"/><path d="M17.02,8.04a12.961,12.961,0,0,1,13.96,0L31,8,27.487,4.487a12.727,12.727,0,0,0-6.974,0L17,8Z" style="fill:#7a3eb5"/><path d="M26,28A12.988,12.988,0,0,1,13.541,11.3,12.992,12.992,0,1,0,36.459,22.7,12.969,12.969,0,0,1,26,28Z" style="fill:#dce1eb"/><path d="M24,32a12.824,12.824,0,0,0,5-1v2.71L26,35a1,1,0,0,0-1-1H23a1,1,0,0,0-1,1l-3-1.29V31A12.824,12.824,0,0,0,24,32Z" style="fill:#ffcdbe"/><path d="M11,19a12.955,12.955,0,0,0,.77,4.42A3,3,0,1,1,11,18.17h.03C11.01,18.44,11,18.72,11,19Z" style="fill:#ffcdbe"/><path d="M11,18.83c0-.279.01-.557.03-.826a2.983,2.983,0,0,0-.021,5.646,3.018,3.018,0,0,0,.761-.4A12.955,12.955,0,0,1,11,18.83Z" style="fill:#ffbeaa"/><path d="M38,18a3,3,0,1,1-1.77,5.42A12.955,12.955,0,0,0,37,19c0-.28-.01-.56-.03-.83H37A3,3,0,0,1,38,18Z" style="fill:#ffcdbe"/><path d="M31,20a2.006,2.006,0,0,1,2,2c0,3.6-4.37,7-9,7s-9-3.4-9-7a2,2,0,0,1,4,0c0,.87,1.99,3,5,3s5-2.13,5-3A2.006,2.006,0,0,1,31,20Z" style="fill:#d72878"/><circle cx="24" cy="17" r="4" style="fill:#d72878"/><path d="M25,19a3.961,3.961,0,0,1-3.929-4.708,3.993,3.993,0,1,0,6.858,3.416A3.976,3.976,0,0,1,25,19Z" style="fill:#a00f5a"/><path d="M24,32a12.824,12.824,0,0,1-5-1v1a13,13,0,0,0,10,0V31A12.824,12.824,0,0,1,24,32Z" style="fill:#ffbeaa"/><path d="M14.91,9.71a12.9,12.9,0,0,0-3.88,8.46H11a3,3,0,1,0,.77,5.25,12.957,12.957,0,0,0,2.45,4.13l-.1.09A4.045,4.045,0,0,1,7.05,25a4.018,4.018,0,0,1-4.03-4,1.1,1.1,0,0,1,.02-.18,2.969,2.969,0,0,1,0-5.64A1.1,1.1,0,0,1,3.02,15a4.018,4.018,0,0,1,4.03-4,4.043,4.043,0,0,1,7.86-1.29Z" style="fill:#ffa1c8"/><path d="M38,24a3,3,0,1,0-1-5.83h-.03a12.9,12.9,0,0,0-3.88-8.46A4.043,4.043,0,0,1,40.95,11a4.018,4.018,0,0,1,4.03,4,1.1,1.1,0,0,1-.02.18,2.969,2.969,0,0,1,0,5.64,1.1,1.1,0,0,1,.02.18,4.018,4.018,0,0,1-4.03,4,4.045,4.045,0,0,1-7.07,2.64l-.1-.09a12.957,12.957,0,0,0,2.45-4.13A3,3,0,0,0,38,24Z" style="fill:#ffa1c8"/><rect x="31" y="16" width="2" height="2" style="fill:#d72878"/><rect x="31" y="12" width="2" height="2" style="fill:#d72878"/><rect x="33" y="14" width="2" height="2" style="fill:#d72878"/><rect x="29" y="14" width="2" height="2" style="fill:#d72878"/><rect x="15" y="16" width="2" height="2" style="fill:#d72878"/><rect x="15" y="12" width="2" height="2" style="fill:#d72878"/><rect x="17" y="14" width="2" height="2" style="fill:#d72878"/><rect x="13" y="14" width="2" height="2" style="fill:#d72878"/><path d="M44,18a2.987,2.987,0,0,0-2.04-2.82,1.1,1.1,0,0,0,.02-.18,4.018,4.018,0,0,0-4.03-4,4,4,0,0,0-2.532-3.706A4.011,4.011,0,0,0,33.09,9.71a12.9,12.9,0,0,1,3.88,8.46H37a3,3,0,1,1-.5,5.416,2.924,2.924,0,0,1-.268-.166c-.047.128-.106.249-.157.374A12.9,12.9,0,0,1,33.78,27.55l.1.09A4,4,0,0,0,35.424,28.7,4,4,0,0,0,37.95,25a4.018,4.018,0,0,0,4.03-4,1.1,1.1,0,0,0-.02-.18A2.987,2.987,0,0,0,44,18Z" style="fill:#ff73a5"/><path d="M11.77,23.42a2.924,2.924,0,0,1-.268.166A2.993,2.993,0,1,1,11,18.17h.03a12.9,12.9,0,0,1,3.88-8.46,4.011,4.011,0,0,0-2.328-2.416A4,4,0,0,0,10.05,11a4.018,4.018,0,0,0-4.03,4,1.1,1.1,0,0,0,.02.18,2.969,2.969,0,0,0,0,5.64,1.1,1.1,0,0,0-.02.18,4.018,4.018,0,0,0,4.03,4,4,4,0,0,0,2.526,3.7A4,4,0,0,0,14.12,27.64l.1-.09a12.9,12.9,0,0,1-2.293-3.756C11.876,23.669,11.817,23.548,11.77,23.42Z" style="fill:#ff73a5"/><path d="M39,20.83A2.985,2.985,0,0,0,36.97,18c.02.269.03.547.03.826a12.955,12.955,0,0,1-.77,4.42,3.018,3.018,0,0,0,.761.4A2.987,2.987,0,0,0,39,20.83Z" style="fill:#ffbeaa"/><path d="M24,27.5c-4.556,0-7.5-2.159-7.5-5.5a.5.5,0,0,1,1,0c0,3.321,3.5,4.5,6.5,4.5,3.584,0,6.5-2.019,6.5-4.5a.5.5,0,0,1,1,0C31.5,25.032,28.136,27.5,24,27.5Z" style="fill:#ffa1c8"/><ellipse cx="25.003" cy="15.987" rx="1.642" ry="2.286" transform="translate(-3.979 22.372) rotate(-45.02)" style="fill:#f6fafd"/><ellipse cx="40" cy="14" rx="0.825" ry="1.148" transform="translate(1.823 32.398) rotate(-45.02)" style="fill:#f6fafd"/><ellipse cx="41.746" cy="16.5" rx="0.413" ry="0.574" transform="translate(0.566 34.366) rotate(-45.02)" style="fill:#f6fafd"/><ellipse cx="25.746" cy="4.5" rx="0.413" ry="0.574" transform="translate(4.364 19.531) rotate(-45.02)" style="fill:#f6fafd"/><path d="M32,39.57,26,37a1,1,0,0,1-1,1H23a1,1,0,0,1-1-1l-6,2.57v3l4.018-1.721A.974.974,0,0,1,21,40h1.382l.723-1.447a1.042,1.042,0,0,1,1.79,0L25.618,40H27a.974.974,0,0,1,.982.849L32,42.57Z" style="fill:#d72878"/><path d="M25,41H23a1,1,0,0,1-1-1l-1.982.849a.994.994,0,0,0,.15.706l.865,1.3-.911,1.669a1,1,0,0,0,1.194,1.428L24,45.054l2.684.895A1.014,1.014,0,0,0,27,46a1,1,0,0,0,.878-1.479l-.911-1.669.865-1.3a.994.994,0,0,0,.15-.706L26,40A1,1,0,0,1,25,41Z" style="fill:#fff04a"/><path d="M23,41h2a1,1,0,0,0,1-1h-.382L24.9,38.553a1.042,1.042,0,0,0-1.79,0L22.382,40H22A1,1,0,0,0,23,41Z" style="fill:#ffb13b"/><path d="M21,40a.974.974,0,0,0-.982.849L22,40Z" style="fill:#ffb13b"/><path d="M27,40H26l1.982.849A.974.974,0,0,0,27,40Z" style="fill:#ffb13b"/><path d="M24,22a5,5,0,1,0-5-5A5.006,5.006,0,0,0,24,22Zm0-8a3,3,0,1,1-3,3A3,3,0,0,1,24,14Z"/><path d="M14,22c0,4.187,4.767,8,10,8s10-3.813,10-8a3,3,0,0,0-6-.06A4.581,4.581,0,0,1,24,24a4.7,4.7,0,0,1-4-2,3,3,0,0,0-6,0Zm4,0c0,1.573,2.577,4,6,4s6-2.427,6-4a1,1,0,0,1,2,0c0,3.028-3.962,6-8,6s-8-2.972-8-6a1,1,0,0,1,2,0Z"/><rect x="31" y="12" width="2" height="2"/><rect x="31" y="16" width="2" height="2"/><rect x="29" y="14" width="2" height="2"/><path d="M45.96,14.534a5.024,5.024,0,0,0-4.1-4.451A5.042,5.042,0,0,0,32.8,8.124q-.534-.432-1.11-.812l.019-.019-7-7a1,1,0,0,0-1.414,0l-7,7L16.3,7.3a13.685,13.685,0,0,0-1.107.814A5.041,5.041,0,0,0,6.14,10.083a5.024,5.024,0,0,0-4.1,4.451,3.964,3.964,0,0,0,0,6.932,5.024,5.024,0,0,0,4.1,4.451,5.043,5.043,0,0,0,8.028,3.035A14.063,14.063,0,0,0,18,31.63V32.2l-2.606-1.117A1,1,0,0,0,14,32v2.358A12.945,12.945,0,0,0,4,47a1,1,0,0,0,1,1H8V46H6.044A10.958,10.958,0,0,1,11,37.769V46H10v2H43a1,1,0,0,0,1-1,12.983,12.983,0,0,0-3.249-8.6l-1.5,1.323A10.983,10.983,0,0,1,41.955,46H37V37.788A10.929,10.929,0,0,1,38.334,38.8l1.334-1.49A12.947,12.947,0,0,0,34,34.35V32a1,1,0,0,0-1.394-.919L30,32.2v-.554a14.05,14.05,0,0,0,1.465-.8L30.4,29.154A12.007,12.007,0,0,1,12.321,16.23l-1.946-.459c-.1.408-.159.825-.218,1.242C10.1,17.011,10.052,17,10,17a3.988,3.988,0,0,0-2.375,7.2.975.975,0,0,0-.57-.2,3.015,3.015,0,0,1-3.038-2.954c0-.034.017-.15.018-.184a1,1,0,0,0-.673-.986,1.973,1.973,0,0,1,0-3.752,1,1,0,0,0,.673-.986A.513.513,0,0,0,4.018,15a3.022,3.022,0,0,1,3.037-3,1,1,0,0,0,1-1,3.037,3.037,0,0,1,5.658-1.5,14.019,14.019,0,0,0-2.639,4.112l1.845.769A11.993,11.993,0,0,1,34.9,14H33v2h2V14.219a11.978,11.978,0,0,1-3.333,14.012l1.279,1.538c.311-.259.6-.539.882-.82a5.043,5.043,0,0,0,8.032-3.032,5.024,5.024,0,0,0,4.1-4.451,3.964,3.964,0,0,0,0-6.932ZM16,33.517l5,2.142v.682l-5,2.142ZM25,39a1.985,1.985,0,0,0,1.5-.7L31,40.231V46H17V40.231L21.5,38.3A1.985,1.985,0,0,0,23,39Zm-2-2V35h2v2Zm-10-.245c.326-.126.659-.239,1-.335V40a1,1,0,0,0,1,1v5H13Zm22,.024V46H33V41a1,1,0,0,0,1-1V36.434C34.341,36.53,34.671,36.65,35,36.779Zm-3,1.7-5-2.142v-.682l5-2.142Zm-4-6.068v.64l-1.5.641A1.985,1.985,0,0,0,25,33H23a1.985,1.985,0,0,0-1.5.7L20,33.055V32.41a13.911,13.911,0,0,0,8,.005ZM10,19h0a13.952,13.952,0,0,0,.566,3.91A2,2,0,1,1,10,19Zm0,6a4,4,0,0,0,1.265-.217,14.04,14.04,0,0,0,1.589,2.653A3.057,3.057,0,0,1,11.091,28a3.022,3.022,0,0,1-3.036-3,.991.991,0,0,0-.27-.673A3.973,3.973,0,0,0,10,25ZM21.109,5.305,24,2.414,26.889,5.3a13.889,13.889,0,0,0-5.78,0ZM38,19a2,2,0,1,1-.575,3.908A14,14,0,0,0,38,19Zm-1.091,9a3.061,3.061,0,0,1-1.748-.555,13.924,13.924,0,0,0,1.582-2.66,3.909,3.909,0,0,0,3.473-.459.99.99,0,0,0-.271.674A3.022,3.022,0,0,1,36.909,28Zm7.729-8.124a1,1,0,0,0-.673.986.513.513,0,0,0,.017.138,3.022,3.022,0,0,1-3.037,3,.97.97,0,0,0-.573.2A3.988,3.988,0,0,0,38,17c-.053,0-.1.011-.158.013a13.931,13.931,0,0,0-3.567-7.489A3.037,3.037,0,0,1,39.945,11a1,1,0,0,0,1,1,3.015,3.015,0,0,1,3.038,2.954c0,.034-.017.15-.018.184a1,1,0,0,0,.673.986,1.973,1.973,0,0,1,0,3.752Z"/><rect x="23" y="41" width="2" height="2"/></g></svg>