<?xml version="1.0" encoding="iso-8859-1"?>
<!-- Generator: Adobe Illustrator 23.0.4, SVG Export Plug-In . SVG Version: 6.00 Build 0)  -->
<svg version="1.1" xmlns="http://www.w3.org/2000/svg" xmlns:xlink="http://www.w3.org/1999/xlink" x="0px" y="0px"
	 viewBox="0 0 64 64" style="enable-background:new 0 0 64 64;" xml:space="preserve">
<g id="time-11">
	<path style="fill:#4E2600;" d="M31.997,15.337c-0.651,0-1.179,0.528-1.179,1.179v20.162c0,0.653,0.528,1.179,1.179,1.179H52.17
		c0.653,0,1.182-0.526,1.182-1.179C53.352,24.911,43.773,15.337,31.997,15.337z M33.176,35.499V17.732
		c9.537,0.587,17.19,8.238,17.78,17.767H33.176z M31.997,15.337c-0.651,0-1.179,0.528-1.179,1.179v20.162
		c0,0.653,0.528,1.179,1.179,1.179H52.17c0.653,0,1.182-0.526,1.182-1.179C53.352,24.911,43.773,15.337,31.997,15.337z
		 M33.176,35.499V17.732c9.537,0.587,17.19,8.238,17.78,17.767H33.176z M51.28,17.355l1.846-2.056l1.49,1.275l1.535-1.79
		l-4.796-4.114l-1.535,1.793l1.514,1.299l-1.798,2.002c-4.467-3.752-10.147-6.1-16.359-6.366V7.006h5.211
		c0.651,0,1.179-0.528,1.179-1.182V1.182C39.566,0.528,39.038,0,38.387,0H25.616c-0.651,0-1.179,0.528-1.179,1.182v4.642
		c0,0.653,0.528,1.182,1.179,1.182h5.203v2.393c-6.031,0.258-11.56,2.48-15.966,6.044l-1.806-2.013l1.516-1.299l-1.538-1.79
		l-4.794,4.114l1.535,1.79l1.49-1.277l1.83,2.037c-5.173,4.974-8.4,11.956-8.4,19.679C4.686,51.747,16.937,64,31.997,64
		c15.063,0,27.317-12.253,27.317-27.317C59.314,29.141,56.241,22.303,51.28,17.355z M26.795,4.645V2.361h10.41v2.284H26.795z
		 M31.997,61.639c-13.759,0-24.953-11.194-24.953-24.956c0-13.759,11.194-24.956,24.953-24.956
		c13.762,0,24.958,11.196,24.958,24.956C56.956,50.445,45.759,61.639,31.997,61.639z M31.997,15.337
		c-0.651,0-1.179,0.528-1.179,1.179v20.162c0,0.653,0.528,1.179,1.179,1.179H52.17c0.653,0,1.182-0.526,1.182-1.179
		C53.352,24.911,43.773,15.337,31.997,15.337z M33.176,35.499V17.732c9.537,0.587,17.19,8.238,17.78,17.767H33.176z"/>
	<path style="fill:#FDD300;" d="M50.956,35.499h-17.78V17.732C42.713,18.319,50.367,25.97,50.956,35.499z"/>
</g>
<g id="Layer_1">
</g>
</svg>
